inDegrees=yes
name=ik_MT_01200627-Y006-000_orientations_updatedTime
DataType=double
version=3
OpenSimVersion=4.5-2024-07-10-f38669b70
endheader
time	pelvis_tilt	pelvis_list	pelvis_rotation	pelvis_tx	pelvis_ty	pelvis_tz	hip_flexion_r	hip_adduction_r	hip_rotation_r	knee_angle_r	knee_angle_r_beta	ankle_angle_r	subtalar_angle_r	mtp_angle_r	hip_flexion_l	hip_adduction_l	hip_rotation_l	knee_angle_l	knee_angle_l_beta	ankle_angle_l	subtalar_angle_l	mtp_angle_l	lumbar_extension	lumbar_bending	lumbar_rotation	arm_flex_r	arm_add_r	arm_rot_r	elbow_flex_r	pro_sup_r	wrist_flex_r	wrist_dev_r	arm_flex_l	arm_add_l	arm_rot_l	elbow_flex_l	pro_sup_l	wrist_flex_l	wrist_dev_l
1748433523.245953	-1.137809188937912	-0.2122605176003123	-167.0923065806917	0	0.9399999943917833	0	79.99999999525214	-7.000000001125469	0	79.99999999792263	1.396263401559207	0	0	0	79.99999999525214	-7.000000004501878	0	79.99999999802388	1.396263401560974	0	0	0	-10.32784367967977	-0.1825691764196891	-2.778960549924819	-1.982457729162074	-9.399560671425274	3.023901400228578	57.81039744088896	21.32203397018638	3.651180524223365	-24.96308220135687	3.489055694824507	-18.14443055152693	4.596700703581066	42.31586863840901	35.39095964108432	21.38117259907979	-24.95728726781222
1748433523.255953	-1.130034400165824	-0.2124898315316038	-167.1068421468018	0	0.9399999943917833	0	79.99999999525214	-7.000000001125469	0	79.99999999792263	1.396263401559207	0	0	0	79.99999999525214	-7.000000004501878	0	79.99999999802388	1.396263401560974	0	0	0	-10.39112332914853	-0.2433263493917691	-2.764108964209957	-1.775462719862789	-9.675177971659156	3.653736334734946	55.44820402051805	21.16033370215117	4.229881483560912	-24.96047707062348	3.84692275971867	-18.15527692760162	6.094136873323456	39.90504025131772	33.711769606248	21.83779442003657	-24.95416087009471
1748433523.265953	-1.137742869210278	-0.2130697475326312	-167.1089860065836	0	0.9399999943917833	0	79.99999999525214	-7.000000001125469	0	79.99999999792263	1.396263401559207	0	0	0	79.99999999525214	-7.000000004501878	0	79.99999999802388	1.396263401560974	0	0	0	-10.44890427897977	-0.298041435927942	-2.754397159138549	-1.563760791136418	-9.901956009406655	4.329404974848641	53.03299209835528	20.81934724136222	4.872932188257433	-24.95727560316415	4.137993994719192	-18.08867699149574	7.613593274100713	37.49445210244331	31.98928071127207	22.43210041378264	-24.9502675904224
1748433523.275953	-1.117954880021501	-0.2095684238927553	-167.1088407539959	0	0.9399999943917833	0	79.99999999525214	-7.000000001125469	0	79.99999999792263	1.396263401559207	0	0	0	79.99999999525214	-7.000000004501878	0	79.99999999802388	1.396263401560974	0	0	0	-10.46082773305451	-0.3514811701799285	-2.754707141653399	-1.391292708037686	-10.07595752527308	5.05720333414313	50.65219222768273	20.27581996821111	5.501275573798531	-24.95316498507383	4.407319476281646	-17.92759515353117	9.189318375912986	35.05126192304424	30.20026334873723	23.10663596046412	-24.94575805011382
1748433523.285953	-1.116992773038637	-0.1990766415176902	-167.1087854479541	0	0.9399999943917833	0	79.99999999525214	-7.000000001125469	0	79.99999999792263	1.396263401559207	0	0	0	79.99999999525214	-7.000000004501878	0	79.99999999802388	1.396263401560974	0	0	0	-10.49723729091856	-0.3645740217132102	-2.781831022109726	-1.252511470607419	-10.2039995294076	5.868275241659637	48.32021463607639	19.56807520671543	6.066434137384573	-24.94751779872256	4.64195787916665	-17.62054556686546	10.75741047396477	32.60187178529255	28.40000309759976	23.79574505611134	-24.93984976204498
1748433523.295953	-1.120277001160502	-0.2035404182271299	-167.1150635209863	0	0.9399999943917833	0	79.99999999525214	-7.000000001125469	0	79.99999999792263	1.396263401559207	0	0	0	79.99999999525214	-7.000000004501878	0	79.99999999802388	1.396263401560974	0	0	0	-10.54394419193085	-0.4012999832205456	-2.753319398326288	-1.165995124909586	-10.2469077339009	6.638268841585068	46.1269167421688	18.69401872159409	6.449700024191087	-24.93884300460995	4.848305840306931	-17.19067637820478	12.39061721353992	30.18887751761743	26.64180187631472	24.40031762484487	-24.93095746061859
1748433523.305953	-1.100498834558294	-0.1827272726250355	-167.120290918339	0	0.9399999943917833	0	79.99999999525214	-7.000000001125469	0	79.99999999792263	1.396263401559207	0	0	0	79.99999999525214	-7.000000004501878	0	79.99999999802388	1.396263401560974	0	0	0	-10.56924110123043	-0.4026633938739585	-2.777895520728558	-1.175629726111495	-10.19336866439738	7.397146475292754	44.06160462755297	17.86225870363734	6.743205917902584	-24.92564399370404	4.898177582157458	-16.60069853534414	13.80834443899792	27.97016580659369	25.10273769525552	24.80134185646929	-24.91761592170002
1748433523.315953	-1.057682313451999	-0.185704473827523	-167.1150433184145	0	0.9399999943917833	0	79.99999999525214	-7.000000001125469	0	79.99999999792263	1.396263401559207	0	0	0	79.99999999525214	-7.000000004501878	0	79.99999999802388	1.396263401560974	0	0	0	-10.52077752585482	-0.4498357379309293	-2.816651299427496	-1.24289366375352	-10.09062203142119	8.148244317438763	42.07013350789499	17.04550405780767	6.889070337716815	-24.90408131506186	4.705843924701083	-15.90467065055562	15.01339307616483	26.02463353574475	23.8686194190803	24.94489251345553	-24.89411786595165
1748433523.325953	-1.092622990807242	-0.1619630060146158	-167.1126464050885	0	0.9399999943917833	0	79.99999999525214	-7.000000001125469	0	79.99999999792263	1.396263401559207	0	0	0	79.99999999525214	-7.000000004501878	0	79.99999999802388	1.396263401560974	0	0	0	-10.65454234719316	-0.4477091340224871	-2.737355970045187	-1.255107810967178	-9.906831816515194	8.673208082980322	40.10095260459176	16.46000819150501	6.999934820854482	-24.86497926579211	4.572465695521025	-15.12056348546253	16.18592370381849	24.19647630711948	22.84857301686593	25.00439418778285	-24.84698634703869
1748433523.335953	-1.104851143158214	-0.1521511092748701	-167.1222197607102	0	0.9399999943917833	0	79.99999999525214	-7.000000001125469	0	79.99999999792263	1.396263401559207	0	0	0	79.99999999525214	-7.000000004501878	0	79.99999999802388	1.396263401560974	0	0	0	-10.74073244405284	-0.486886938654317	-2.696393100830589	-1.275736307169319	-9.648862409632009	9.144432756877093	38.11022748328092	16.13741969967511	7.057045368758867	-24.78425245973711	4.287618162880132	-14.29636988210995	17.08698471450137	22.54959803793223	22.08566272808472	24.89004557348055	-24.71940064292515
1748433523.345953	-1.091409132941541	-0.1282521005945535	-167.1129000464791	0	0.9399999943917833	0	79.99999999525214	-7.000000001125469	0	79.99999999792263	1.396263401559207	0	0	0	79.99999999525214	-7.000000004501878	0	79.99999999802388	1.396263401560974	0	0	0	-10.78562068799546	-0.5146712552558544	-2.681352795921825	-1.261971681851373	-9.384773892056756	9.562630844752062	36.02258604699649	16.00675747410568	7.17376394418844	-24.58439664601998	3.966833362534095	-13.52967167064331	17.78416539182551	21.03621775708806	21.48762636580718	24.76774857711203	-24.22021336455773
1748433523.355953	-1.102459852827559	-0.11284160775622	-167.1214818025495	0	0.9399999943917833	0	79.99999999525214	-7.000000001125469	0	79.99999999792263	1.396263401559207	0	0	0	79.99999999525214	-7.000000004501878	0	79.99999999802388	1.396263401560974	0	0	0	-10.86045260648688	-0.5504247915253895	-2.667483623840758	-1.181875573657371	-9.15232701981186	9.921798289349232	33.86734599035606	16.05637148720274	7.391803417736527	-24.11096042827898	3.709707093217684	-12.90980702941077	18.35477785197519	19.59875723785435	20.8090909146047	24.7565565206428	-23.02736364047291
1748433523.365953	-1.090401003933276	-0.08590738283655992	-167.1065274499213	0	0.9399999943917833	0	79.99999999525214	-7.000000001125469	0	79.99999999792263	1.396263401559207	0	0	0	79.99999999525214	-7.000000004501878	0	79.99999999802388	1.396263401560974	0	0	0	-10.86229947983191	-0.5826182813987183	-2.683050688427125	-1.133575416904451	-8.978984051737731	10.22881560351583	31.67259559471762	16.21570839744816	7.711002277553025	-23.39997542708626	3.388549716867687	-12.35879158261795	18.83660350821686	18.23747500345817	20.12470387207782	24.78169030812078	-21.55369411494771
1748433523.375953	-1.089441380171828	-0.06181243979861278	-167.0920822396029	0	0.9399999943917833	0	79.99999999525214	-7.000000001125469	0	79.99999999792263	1.396263401559207	0	0	0	79.99999999525214	-7.000000004501878	0	79.99999999802388	1.396263401560974	0	0	0	-10.9011940977576	-0.614173802327186	-2.713700141391763	-1.026223193224425	-8.799946138252032	10.53228991997794	29.45278150445888	16.4796786037192	8.144188031498716	-22.54270265273496	3.129056566102431	-11.81837639646126	19.36111777179953	16.84652187898361	19.33357440464153	24.89799148126145	-20.01223847705688
1748433523.385953	-1.084418023602756	-0.04726470691850471	-167.0896625750123	0	0.9399999943917833	0	79.99999999525214	-7.000000001125469	0	79.99999999792263	1.396263401559207	0	0	0	79.99999999525214	-7.000000004501878	0	79.99999999802388	1.396263401560974	0	0	0	-10.94298224916296	-0.6355232112707544	-2.761450464830921	-0.908016717915803	-8.625134263398001	10.82139798184394	27.24993230993273	16.86976215744894	8.578165890642321	-21.58037750902054	2.864685839917572	-11.25844247017514	19.87265992796958	15.49417650158652	18.4719839498326	25.00599790558984	-18.47232500314412
